# AST/ASF file generated using VICON BodyLanguage
# -----------------------------------------------
:version 1.10
:name VICON
:units
  mass 1.0
  length 0.45
  angle deg
:documentation
   .ast/.asf automatically generated from VICON data using
   VICON BodyBuilder and BodyLanguage model FoxedUp or BRILLIANT.MOD
:root
   order TX TY TZ RX RY RZ
   axis XYZ
   position 0 0 0  
   orientation 0 0 0 
:bonedata
  begin
     id 1 
     name lhipjoint
     direction 0.567725 -0.736092 0.368589 
     length 2.42353 
     axis 0 0 0  XYZ
  end
  begin
     id 2 
     name lfemur
     direction 0.34202 -0.939693 0  
     length 7.24894  
     axis 0 0 20  XYZ
    dof rx ry rz
    limits (-160.0 20.0)
           (-70.0 70.0)
           (-60.0 70.0)
  end
  begin
     id 3 
     name ltibia
     direction 0.34202 -0.939693 0   
     length 7.6997   
     axis 0 0 20   XYZ
    dof rx
    limits (-10.0 170.0)
  end
  begin
     id 4 
     name lfoot
     direction 0.100767 -0.276854 0.955614   
     length 2.37556   
     axis -90 7.62852e-016 20   XYZ
    dof rx rz
    limits (-45.0 90.0)
           (-70.0 20.0)
  end
  begin
     id 5 
     name ltoes
     direction 1.53592e-011 -4.21894e-011 1   
     length 1.18363   
     axis -90 7.62852e-016 20   XYZ
    dof rx
    limits (-90.0 20.0)
  end
  begin
     id 6 
     name rhipjoint
     direction -0.556459 -0.742938 0.372017   
     length 2.4012  
     axis 0 0 0  XYZ 
  end
  begin
     id 7 
     name rfemur
     direction -0.34202 -0.939693 0   
     length 7.5119   
     axis 0 0 -20   XYZ
    dof rx ry rz
    limits (-160.0 20.0)
           (-70.0 70.0)
           (-70.0 60.0)
  end
  begin
     id 8 
     name rtibia
     direction -0.34202 -0.939693 0   
     length 7.50155   
     axis 0 0 -20   XYZ
    dof rx
    limits (-10.0 170.0)
 end
 begin
     id 9 
     name rfoot
     direction -0.118427 -0.325376 0.938139   
     length 2.32487  
     axis -90 -7.62852e-016 -20   XYZ
    dof rx rz
    limits (-45.0 90.0)
           (-20.0 70.0)
  end
  begin
     id 10 
     name rtoes
     direction -1.53525e-011 -4.21868e-011 1   
     length 1.15233   
     axis -90 -7.62852e-016 -20   XYZ
    dof rx
    limits (-90.0 20.0)
  end
  begin
     id 11 
     name lowerback
     direction 0.0287568 0.999577 -0.00434502   
     length 2.15243   
     axis 0 0 0   XYZ
    dof rx ry rz
    limits (-20.0 45.0)
           (-30.0 30.0)
           (-30.0 30.0)
  end
  begin
     id 12 
     name upperback
     direction 0.0294009 0.99956 0.00404628   
     length 2.15427   
     axis 0 0 0   XYZ
    dof rx ry rz
    limits (-20.0 45.0)
           (-30.0 30.0)
           (-30.0 30.0)
  end
  begin
     id 13 
     name thorax
     direction 0.0151014 0.999868 0.0059419   
     length 2.14898   
     axis 0 0 0   XYZ
    dof rx ry rz
    limits (-20.0 45.0)
           (-30.0 30.0)
           (-30.0 30.0)
  end
  begin
     id 14 
     name lowerneck
     direction -0.0249197 0.989906 0.139515   
     length 1.6861   
     axis 0 0 0   XYZ
    dof rx ry rz
    limits (-20.0 45.0)
           (-30.0 30.0)
           (-30.0 30.0)
  end
  begin
     id 15 
     name upperneck
     direction 0.0438463 0.988795 -0.142693   
     length 1.71276   
     axis 0 0 0   XYZ
    dof rx ry rz
    limits (-20.0 45.0)
           (-30.0 30.0)
           (-30.0 30.0)
  end
  begin
     id 16
     name head
     direction 0.0148499 0.997845 -0.0639186  
     length 1.7209  
     axis 0 0 0   XYZ
    dof rx ry rz
    limits (-20.0 45.0)
           (-30.0 30.0)
           (-30.0 30.0)
  end
  begin
     id 17 
     name lclavicle
     direction 0.940298 0.323464 -0.105876  
     length 3.9048  
     axis 0 0 0   XYZ
    dof ry rz
    limits (-20.0 10.0)
           (0.0 20.0)
  end
  begin
     id 18 
     name lhumerus
     direction 1 -4.48954e-011 -4.9675e-028   
     length 4.6851   
     axis 180 -30 -90   XYZ
    dof rx ry rz
    limits (-60.0 90.0)
           (-90.0 90.0)
           (-90.0 90.0)
  end
  begin
     id 19
     name lradius
     direction 1 -4.48992e-011 -1.03359e-026   
     length 3.39626   
     axis 180 -30 -90   XYZ
    dof rx
    limits (-10.0 170.0)
  end
  begin
     id 20
     name lwrist
     direction 1 -4.48906e-011 -1.67336e-026   
     length 1.69813   
     axis 9.90442e-015 90 90   XYZ
    dof ry
    limits (-180.0 0.0)
 end
  begin
     id 21 
     name lhand
     direction 1 -4.49006e-011 -3.34673e-026   
     length 0.486078   
     axis 2.1355e-014 90 90   XYZ
    dof rx rz
    limits (-90.0 90.0)
           (-45.0 45.0)
  end
  begin
     id 22 
     name lfingers
     direction 1 -4.48992e-011 -6.69345e-026   
     length 0.391889   
     axis 4.27099e-014 90 90   XYZ
    dof rx
    limits (0.0 90.0)
  end
  begin
     id 23
     name lthumb
     direction 0.707107 -6.34926e-011 0.707107   
     length 0.562676   
     axis -90 45 2.85299e-015   XYZ
    dof rx rz
    limits (-45.0 45.0)
           (-45.0 45.0)
  end
  begin
     id 24 
     name rclavicle
     direction -0.882459 0.414895 -0.221648   
     length 3.44646  
     axis 0 0 0   XYZ 
    dof ry rz
    limits (-10.0 20.0)
           (-20.0 0.0)
  end
  begin
     id 25 
     name rhumerus
     direction -1 -4.48962e-011 -2.37984e-027  
     length 5.55576   
     axis 180 30 90   XYZ
    dof rx ry rz
    limits (-90.0 60.0)
           (-90.0 90.0)
           (-90.0 90.0)
  end
  begin
     id 26 
     name rradius
     direction -1 -4.48982e-011 -6.86791e-027   
     length 3.32774   
     axis 180 30 90   XYZ
    dof rx
    limits (-10.0 170.0)
  end
  begin
     id 27 
     name rwrist
     direction -1 -4.48961e-011 -1.67336e-026   
     length 1.66387   
     axis 9.90442e-015 -90 -90   XYZ
    dof ry
    limits (-180.0 0.0)
  end
  begin
     id 28
     name rhand
     direction -1 -4.4897e-011 -3.34673e-026   
     length 0.507628   
     axis 2.1355e-014 -90 -90   XYZ
    dof rx rz
    limits (-90.0 90.0)
           (-45.0 45.0)
  end
  begin
     id 29
     name rfingers
     direction -1 -4.48854e-011 -6.69345e-026   
     length 0.409263   
     axis 4.27099e-014 -90 -90   XYZ
    dof rx
    limits (0.0 90.0)
  end
  begin
     id 30
     name rthumb
     direction -0.707107 -6.34913e-011 0.707107   
     length 0.587622   
     axis -90 -45 -2.85299e-015   XYZ
    dof rx rz
    limits (-45.0 45.0)
           (-45.0 45.0)
  end
:hierarchy
  begin
    root lhipjoint rhipjoint lowerback
    lhipjoint lfemur
    lfemur ltibia
    ltibia lfoot
    lfoot ltoes
    rhipjoint rfemur
    rfemur rtibia
    rtibia rfoot
    rfoot rtoes
    lowerback upperback
    upperback thorax
    thorax lowerneck lclavicle rclavicle
    lowerneck upperneck
    upperneck head
    lclavicle lhumerus
    lhumerus lradius
    lradius lwrist
    lwrist lhand lthumb
    lhand lfingers
    rclavicle rhumerus
    rhumerus rradius
    rradius rwrist
    rwrist rhand rthumb
    rhand rfingers
  end

#!OML:ASF E:\motion texture\Top Level 1\Subject 1\Session 1\male.ASF
:FULLY-SPECIFIED
:DEGREES
86
root 38.892 17.602 6.13334 120.286 -83.1614 -112.132
lowerback -3.53572 1.06538 8.65425
upperback -4.2852 1.13075 3.43419
thorax -2.36663 0.295568 -1.26139
lowerneck -9.60637 -4.5056 -8.60249
upperneck 1.5917 -5.44747 8.81016
head 2.51117 -2.51746 3.77524
rclavicle -6.70898e-015 4.77083e-015
rhumerus 34.06 3.37376 -84.7676
rradius 70.5976
rwrist -36.092
rhand -6.85684 -29.3833
rfingers 7.12502
rthumb 19.0085 -58.4745
lclavicle -6.70898e-015 4.77083e-015
lhumerus -2.47891 -8.85873 88.2429
lradius 51.2533
lwrist -10.7329
lhand -13.1158 19.0085
lfingers 7.12502
lthumb 12.9816 48.5847
rfemur -2.71371 2.87042 30.4409
rtibia 15.4972
rfoot -15.8167 -9.75472
rtoes 11.458
lfemur -33.3961 0.582029 -9.28306
ltibia 27.8463
lfoot -8.3339 4.68378
ltoes -14.2653
87
root 38.8127 17.5913 6.12524 120.493 -83.089 -112.276
lowerback -3.53809 1.09808 8.69501
upperback -4.33336 1.17559 3.39619
thorax -2.4108 0.313133 -1.32228
lowerneck -9.33334 -4.45258 -8.55294
upperneck 0.786043 -5.37513 8.95147
head 2.22422 -2.49067 3.82621
rclavicle -5.91384e-015 -4.37326e-014
rhumerus 35.1379 3.35643 -84.4878
rradius 71.2339
rwrist -35.9321
rhand -7.38602 -29.1292
rfingers 7.12502
rthumb 18.4995 -58.2696
lclavicle -5.91384e-015 -4.37326e-014
lhumerus -1.74232 -9.04702 87.6737
lradius 51.9463
lwrist -10.5056
lhand -13.1427 18.9331
lfingers 7.12502
lthumb 12.9557 48.5108
rfemur -2.44101 2.82221 30.5238
rtibia 15.4077
rfoot -15.9797 -9.77015
rtoes 11.1512
lfemur -33.4903 0.494143 -9.11496
ltibia 26.7792
lfoot -8.14325 4.8441
ltoes -14.2693
88
root 38.7314 17.58 6.11742 120.773 -83.0106 -112.491
lowerback -3.55972 1.13301 8.74221
upperback -4.36681 1.22017 3.35251
thorax -2.42849 0.331741 -1.39239
lowerneck -9.0612 -4.39427 -8.50109
upperneck -0.0455704 -5.29438 9.10015
head 1.92991 -2.46133 3.88004
rclavicle -2.11209e-015 3.33958e-014
rhumerus 36.2001 3.34103 -84.1935
rradius 71.789
rwrist -35.7403
rhand -7.87753 -28.9143
rfingers 7.12502
rthumb 18.0267 -58.0989
lclavicle -2.11209e-015 3.33958e-014
lhumerus -0.942448 -9.23118 87.0597
lradius 52.6186
lwrist -10.2794
lhand -13.1721 18.865
lfingers 7.12502
lthumb 12.9273 48.4446
rfemur -2.1689 2.77175 30.6053
rtibia 15.3307
rfoot -16.1455 -9.7833
rtoes 10.8269
lfemur -33.577 0.414971 -8.94029
ltibia 25.7308
lfoot -7.96021 5.02122
ltoes -14.278
89
root 38.6482 17.568 6.10989 121.122 -82.9267 -112.774
lowerback -3.56993 1.16989 8.77509
upperback -4.40843 1.26929 3.31737
thorax -2.46096 0.352208 -1.44583
lowerneck -8.77874 -4.33175 -8.45539
upperneck -0.882979 -5.20653 9.24072
head 1.63219 -2.43044 3.93331
rclavicle 1.44119e-014 1.11319e-014
rhumerus 37.2154 3.33689 -83.8627
rradius 72.268
rwrist -35.519
rhand -8.33775 -28.7322
rfingers 7.12502
rthumb 17.5838 -57.957
lclavicle 1.44119e-014 1.11319e-014
lhumerus -0.115092 -9.40224 86.4304
lradius 53.2722
lwrist -10.0602
lhand -13.2012 18.8076
lfingers 7.12502
lthumb 12.8993 48.389
rfemur -1.89712 2.72043 30.6845
rtibia 15.2646
rfoot -16.3112 -9.79475
rtoes 10.4783
lfemur -33.6574 0.343198 -8.75917
ltibia 24.7062
lfoot -7.78528 5.21412
ltoes -14.2813
90
root 38.5627 17.5555 6.10271 121.547 -82.8367 -113.133
lowerback -3.58448 1.20922 8.80473
upperback -4.44634 1.32096 3.28302
thorax -2.48682 0.374364 -1.49656
lowerneck -8.49764 -4.26461 -8.41195
upperneck -1.72868 -5.11109 9.38012
head 1.33221 -2.39738 3.98736
rclavicle -9.93923e-015 3.02153e-014
rhumerus 38.2035 3.34158 -83.5026
rradius 72.6619
rwrist -35.2694
rhand -8.76986 -28.5725
rfingers 7.12502
rthumb 17.168 -57.8341
lclavicle -9.93923e-015 3.02153e-014
lhumerus 0.762966 -9.56286 85.7693
lradius 53.9031
lwrist -9.84628
lhand -13.2333 18.757
lfingers 7.12502
lthumb 12.8683 48.3403
rfemur -1.62532 2.66755 30.7606
rtibia 15.2107
rfoot -16.4774 -9.80243
rtoes 10.1055
lfemur -33.7309 0.280813 -8.57331
ltibia 23.7106
lfoot -7.61793 5.42031
ltoes -14.2875
91
root 38.4752 17.5424 6.09592 122.05 -82.7405 -113.568
lowerback -3.59194 1.25068 8.8216
upperback -4.49077 1.37676 3.25657
thorax -2.52336 0.398328 -1.53212
lowerneck -8.20685 -4.192 -8.37865
upperneck -2.5779 -5.007 9.515
head 1.02952 -2.36169 4.04262
rclavicle -4.34841e-015 -5.00937e-014
rhumerus 39.1495 3.36015 -83.1054
rradius 72.9813
rwrist -34.9883
rhand -9.17271 -28.4464
rfingers 7.12502
rthumb 16.7802 -57.7413
lclavicle -4.34841e-015 -5.00937e-014
lhumerus 1.67483 -9.70704 85.09
lradius 54.5118
lwrist -9.64212
lhand -13.2663 18.7114
lfingers 7.12502
lthumb 12.8365 48.2967
rfemur -1.35493 2.61442 30.8328
rtibia 15.1719
rfoot -16.6434 -9.80592
rtoes 9.70933
lfemur -33.7984 0.225812 -8.38266
ltibia 22.7489
lfoot -7.45726 5.64142
ltoes -14.2976
92
root 38.3856 17.5289 6.08957 122.627 -82.638 -114.077
lowerback -3.61061 1.29475 8.84265
upperback -4.52877 1.43422 3.2254
thorax -2.54646 0.423643 -1.57465
lowerneck -7.81525 -4.11091 -8.4073
upperneck -3.5256 -4.90207 9.36233
head 0.747607 -2.33462 4.4578
rclavicle -5.51627e-015 -2.3059e-014
rhumerus 40.0725 3.38561 -82.6882
rradius 73.2258
rwrist -34.6736
rhand -9.54908 -28.3438
rfingers 7.12502
rthumb 16.4178 -57.669
lclavicle -5.51627e-015 -2.3059e-014
lhumerus 2.64512 -9.84376 84.3675
lradius 55.0954
lwrist -9.44097
lhand -13.3089 18.677
lfingers 7.12502
lthumb 12.7954 48.2649
rfemur -1.08629 2.56016 30.8999
rtibia 15.1484
rfoot -16.8079 -9.80223
rtoes 9.28919
lfemur -33.8611 0.18058 -8.18973
ltibia 21.8265
lfoot -7.3003 5.87196
ltoes -14.3216
